<mxfile host="app.diagrams.net" agent="Mozilla/5.0 (Windows NT 10.0; Win64; x64) AppleWebKit/537.36 (KHTML, like Gecko) Chrome/129.0.0.0 Safari/537.36" version="24.7.16">
  <diagram name="Page-1" id="R_3rb9Lqo9EyepbYxrs-">
    <mxGraphModel dx="880" dy="468" grid="1" gridSize="10" guides="1" tooltips="1" connect="1" arrows="1" fold="1" page="1" pageScale="1" pageWidth="850" pageHeight="1100" math="0" shadow="0">
      <root>
        <mxCell id="0" />
        <mxCell id="1" parent="0" />
        <mxCell id="3R4aqm10xar4Y1ZaaU_Z-2" value="SEARCH BOOKS" style="ellipse;whiteSpace=wrap;html=1;" vertex="1" parent="1">
          <mxGeometry x="320" y="60" width="160" height="80" as="geometry" />
        </mxCell>
        <mxCell id="3R4aqm10xar4Y1ZaaU_Z-3" value="" style="ellipse;whiteSpace=wrap;html=1;" vertex="1" parent="1">
          <mxGeometry x="320" y="160" width="160" height="80" as="geometry" />
        </mxCell>
        <mxCell id="3R4aqm10xar4Y1ZaaU_Z-4" value="" style="ellipse;whiteSpace=wrap;html=1;" vertex="1" parent="1">
          <mxGeometry x="320" y="257" width="160" height="80" as="geometry" />
        </mxCell>
        <mxCell id="3R4aqm10xar4Y1ZaaU_Z-5" value="" style="ellipse;whiteSpace=wrap;html=1;" vertex="1" parent="1">
          <mxGeometry x="323.5" y="360" width="163" height="80" as="geometry" />
        </mxCell>
        <mxCell id="3R4aqm10xar4Y1ZaaU_Z-6" value="" style="ellipse;whiteSpace=wrap;html=1;" vertex="1" parent="1">
          <mxGeometry x="323.5" y="770" width="165" height="80" as="geometry" />
        </mxCell>
        <mxCell id="3R4aqm10xar4Y1ZaaU_Z-7" value="" style="ellipse;whiteSpace=wrap;html=1;" vertex="1" parent="1">
          <mxGeometry x="326.25" y="880" width="150" height="80" as="geometry" />
        </mxCell>
        <mxCell id="3R4aqm10xar4Y1ZaaU_Z-8" value="" style="ellipse;whiteSpace=wrap;html=1;" vertex="1" parent="1">
          <mxGeometry x="322.5" y="460" width="157.5" height="80" as="geometry" />
        </mxCell>
        <mxCell id="3R4aqm10xar4Y1ZaaU_Z-9" value="" style="ellipse;whiteSpace=wrap;html=1;" vertex="1" parent="1">
          <mxGeometry x="320" y="664" width="155.5" height="80" as="geometry" />
        </mxCell>
        <mxCell id="3R4aqm10xar4Y1ZaaU_Z-10" value="" style="ellipse;whiteSpace=wrap;html=1;" vertex="1" parent="1">
          <mxGeometry x="320" y="559" width="161" height="80" as="geometry" />
        </mxCell>
      </root>
    </mxGraphModel>
  </diagram>
</mxfile>
